<?xml version="1.0" encoding="UTF-8"?>
<svg id="Layer_2" data-name="Layer 2" xmlns="http://www.w3.org/2000/svg" viewBox="0 0 490.12 482.55">
  <defs>
    <style>
      .cls-1 {
        stroke: #000;
        stroke-miterlimit: 10;
        stroke-width: .25px;
      }
    </style>
  </defs>
  <g id="Layer_1-2" data-name="Layer 1">
    <g>
      <path class="cls-1" d="M128.09,347.25c-2.7-8.91-1.83-16.61-1.13-20.46v-95.1c-.04-2.74.23-8.44,3.39-14.45,2.2-4.17,4.94-6.88,6.78-8.43-3.39.03-10.49-.39-18.09-4.82-8.72-5.07-13.07-12.49-14.7-15.65-6.72,8.03-15.28,16.85-26,25.28-4.65,3.66-9.21,6.85-13.57,9.63.13-10.86.45-23.82,1.13-38.52.63-13.56.28-21.68,5.65-28.89,1.09-1.47,4.12-4.19,10.17-9.63,11.21-10.07,12.1-9.89,14.7-13.24,6.59-8.51,7.63-18.43,7.91-21.67,1.11-12.82-3.54-22.6-5.65-26.48.97,3.7,3.17,13.98-1.13,25.28-.93,2.44-4.3,11.3-12.43,16.85-4.55,3.1-7.49,3.06-12.43,7.22-3.95,3.33-6.44,7.04-7.91,9.63-1.9-3.73-3.93-9.21-2.26-14.45,2.14-6.7,8.13-6.04,13.57-13.24,6.28-8.32,7.63-21.59,4.52-31.3-2.17-6.76-5.36-8.25-5.65-14.45-.3-6.48,2.86-11.97,5.65-15.65-7.63,5.16-10.31,10.45-11.3,14.44-1.92,7.7,2.14,11.77,0,21.67-.73,3.39-2.44,11.3-7.91,13.24-4.75,1.69-10.64-1.72-13.57-6.02-7.32-10.76,2.71-28.9,3.39-30.09,3.73-6.57,5.65-5.74,10.17-13.24,2.04-3.38,7.02-11.84,7.91-22.87,1.25-15.45-6.24-27.3-9.04-31.3,1.52,7.27,2.62,17.88-1.13,28.89-5.38,15.81-15.57,17.3-24.87,36.11-4.37,8.83-10.09,20.41-7.91,33.7,2.74,16.79,15.3,19.36,16.96,37.32.23,2.5,1.68,18.29-6.78,22.87-6.81,3.68-17.51-1.26-20.35-8.43-2.36-5.95,2-10.18,2.26-19.26.29-9.93-4.54-18.28-9.04-24.08,1.53,4.56,3.13,11.34,2.26,19.26-1.35,12.3-7.13,13.43-7.91,22.87-1.15,13.87,9.71,30.79,20.35,38.52,2.29,1.67,6.4,4.23,9.04,9.63,2.51,5.12,2.35,10.03,2.26,13.24-.22,8.5-.25,18.76,0,32.5-9.62-4.52-13.79-10.17-15.83-14.45-3.93-8.26-1.66-15.09-6.78-21.67-3.63-4.66-8.82-6.44-12.43-7.22,3.58,3.98,8.25,10.4,10.17,19.26,2.22,10.23-1.25,14.4,2.26,21.67,3.95,8.18,9.87,6.09,15.83,15.65,3.48,5.6,4.44,11.11,5.65,18.06,1.41,8.11,1.24,14.24,1.13,19.26-.17,8.35-.29,20.42,0,36.11.2,1.01,2.35,12.79-5.65,21.67-6.71,7.43-15.53,7.27-16.96,7.22,9.11,3.55,14.42,9.01,16.96,12.04,5.75,6.89,8.25,14.56,10.17,20.46,1.11,3.41,1.82,6.34,2.26,8.43,2.1-7.39,5.54-16.69,11.3-26.48,9.7-16.48,21.52-26.75,29.39-32.5-2.99.62-9.27,1.46-13.57-2.41-4.16-3.73-4.43-10.01-4.52-13.24-.38-12.73-.98-42.34-1.13-81.86,2.3-3.4,5.94-7.92,11.3-12.04,3.71-2.84,7.26-4.74,10.17-6.02,2.32,1.44,5.7,4.04,7.91,8.43,2.04,4.05,2.2,7.86,2.26,9.63.92,28.44-.25,69.97,1.13,92.69.13,2.13.35,5.31,0,9.63-1.02,12.36-5.69,20.73-11.3,31.3-10.4,19.58-15.6,29.37-16.96,34.91-3.37,13.75-1.93,25.34-1.13,31.3,1.09,8.13,2.39,17.9,9.04,27.69,3.55,5.23,7.45,8.72,10.17,10.83-3.6-6.37-8.86-17.8-9.04-32.5-.23-17.85,7.15-30.63,14.7-43.33,12.58-21.17,28.63-35.84,42.96-45.74-2.08-2.71-4.93-7.14-6.78-13.24Z"/>
      <path class="cls-1" d="M255.83,281.05c1.16,2.97,8.7,23.14-1.13,39.72-6.7,11.3-17.82,14.79-28.26,18.06-19.78,6.2-37.83,3.4-49.74,0,2.66-3.32,6.61-8.31,11.3-14.45,18.9-24.72,26.51-37.65,39.57-55.37,6.89-9.35,17.03-22.39,30.52-37.32-1.17-1.17-3.21-3.54-4.52-7.22-1.28-3.59-1.26-6.73-1.13-8.43v-22.87c.54-3.29,1.53-7.46,3.39-12.04,2.12-5.2,4.67-9.21,6.78-12.04-1.6.28-3.99.5-6.78,0-5.89-1.06-9.8-4.67-11.3-6.02-5.78-5.16-16.96-13.23-32.78-24.08-2.22-1.78-7.52-6.59-9.04-14.45-1.38-7.1.96-13.37,2.26-16.85,1.99-5.34,3.26-5.1,4.52-9.63,1.7-6.09.76-11.36,0-15.65-.65-3.64-2.09-9.36-5.65-15.65,1.33,3.95,2.52,9.57,1.13,15.65-.68,2.97-1.64,4.58-10.17,18.06-5.95,9.4-7.35,11.57-7.91,15.65-.59,4.26-.12,9.6,0,10.83.53,5.52,1.46,6.73,1.13,9.63-.31,2.74-1.69,6.57-6.78,10.83-4.39,3.14-10.64,8.19-16.96,15.65-7.83,9.24-14.91,17.6-15.83,30.09-.9,12.34,4.75,21.46,5.65,22.87,5.47,8.55,12.93,12.06,15.83,13.24-2.04-2.04-9.12-9.58-10.17-21.67-.19-2.22-1.25-16.81,9.04-26.48,7.68-7.22,16.85-7.22,20.35-7.22,1.08,0,16.9.23,26,12.04,10.95,14.2,4.78,35.53,1.13,48.15-3.14,10.84-6.5,16.05-29.39,52.97-12.8,20.65-19.25,31.05-21.48,34.91-18.53,32.11-25.48,50.14-28.26,57.78-3.83,10.5-6.36,19.37-7.91,25.28,1.92-5.13,8.99-22.18,26-30.09,13.48-6.27,26.01-3.47,36.17-1.2,15.46,3.45,26.61,10.83,32.78,15.65,1.84-5.21,4.98-13.01,10.17-21.67,8.23-13.74,13.1-15.43,19.22-27.69,2.37-4.75,7.07-14.41,7.91-27.69.91-14.29-3.12-25.53-5.65-31.3Z"/>
      <path class="cls-1" d="M365.48,330.4c-2.14-5.07-2.32-9.62-2.26-12.04.38-27.69.75-55.37,1.13-83.06-.34-2.81-.79-9.44,2.26-16.85,3.07-7.46,7.99-11.61,10.17-13.24-3.82.2-9.49-.05-15.83-2.41-12.37-4.61-19.1-14.25-21.48-18.06-4.77,5.35-10.4,11.08-16.96,16.85-7.15,6.29-14.06,11.45-20.35,15.65v-58.98c-.29-2.7-.35-6.64,1.13-10.83,2.23-6.31,6.17-8.12,10.17-13.24,5.45-6.98,6.73-14.65,7.91-21.67,1.93-11.5.25-21.03-1.13-26.48.49,5.22.71,15.66-4.52,26.48-7.03,14.55-19.57,20.79-23.74,22.87-2.29,1.14-4.26,1.91-5.65,2.41-1.08-2.7-2.16-6.66-1.13-10.83,1.09-4.4,3.81-6.11,6.78-9.63,5.28-6.24,9.25-15.67,9.04-24.08-.2-7.97-4.02-9.15-4.52-18.06-.4-7.09,1.64-13.01,3.39-16.85-5.93,4.35-8.14,8.75-9.04,12.04-1.21,4.41.14,6.12-1.13,13.24-.82,4.6-1.53,8.59-4.52,12.04-.35.41-5.59,6.31-10.17,4.82-5.07-1.65-7.21-11.66-5.65-19.26,1.49-7.25,5.34-7.42,10.17-16.85,1.86-3.63,6.46-12.61,5.65-24.07-.74-10.52-5.68-18.2-7.91-21.67-2.41-3.74-4.88-6.52-6.78-8.43,1.83,2.91,4.68,8.3,5.65,15.65.25,1.89,1.17,9.93-2.26,19.26-4.51,12.29-10.81,11.19-18.09,24.07-2.87,5.08-8.81,15.6-6.78,27.69.77,4.59,3.44,13.91,10.17,21.67,3.17,3.65,5.86,5.36,6.78,9.63,1.41,6.53-2.76,12.38-3.39,13.24-5.53,7.55-14.74,7.27-15.83,7.22,3.45,1.25,11.42,4.68,18.09,13.24,7.2,9.24,8.66,19.05,9.04,22.87.38,46.55.75,93.09,1.13,139.64-.81,4.69-2.57,11.74-6.78,19.26-3.38,6.04-7.2,10.37-10.17,13.24,5.04.83,12.22,2.47,20.35,6.02,8.65,3.78,15.77,6.89,21.48,14.45,5.9,7.82,7.53,16.73,7.91,22.87,2.04-5.06,4.63-10.34,7.91-15.65,16.99-27.49,42.61-39.48,56.52-44.54-1.72-1.56-4.69-4.68-6.78-9.63ZM332.7,324.38c-.12,3.34-.62,7.99-2.26,13.24-.99,3.17-2.69,7.48-5.65,12.04-2.73-3.02-6.1-6.33-10.17-9.63-4.45-3.6-8.71-6.34-12.43-8.43-.38-31.3-.75-62.6-1.13-93.89l20.35-14.45c1.34.45,2.93,1.18,4.52,2.41,5.15,3.96,6.45,10.1,6.78,12.04v86.67Z"/>
      <path class="cls-1" d="M419.74,226.88c.1-.91.72-5.95,4.52-8.43.58-.38,1.77-1.13,3.39-1.2,2.07-.09,3.64.98,6.78,3.61,4.27,3.58,6.41,5.37,7.91,7.22,2.7,3.33,4.05,6.22,5.65,9.63,2.83,6.03,4.05,11.07,4.52,13.24.63,2.88.95,5.36,1.13,7.22,1.34-2.82,3.55-7.14,6.78-12.04,2.28-3.45,5.2-7.4,15.83-19.26,10.01-11.17,12.85-13.72,13.57-19.26.58-4.51-.54-8.67-1.13-10.83-1.82-6.71-4.31-7.6-6.78-14.45-1.09-3.02-2.98-8.25-2.26-14.45.89-7.69,5.34-13.06,7.91-15.65-5.74,3.21-8.76,7.34-10.17,9.63-5.24,8.5-4.61,18.07-4.52,19.26.48,6.2,2.57,8.48,1.13,13.24-.25.84-1.76,5.84-5.65,7.22-5.56,1.98-11.55-4.99-12.43-6.02-6.43-7.48-5.78-17.62-5.65-19.26.41-5.25,1.99-6.93,7.91-20.46,4.43-10.12,6.64-15.18,6.78-16.85.92-11.16-8.12-13.12-15.83-33.7-3.82-10.22-4.81-18.32-5.65-25.28-1.05-8.67-.56-12.09,0-14.45,2.11-8.8,8.06-14.3,11.3-16.85-3.68,2.39-17.86,12.2-22.61,31.3-1.11,4.48-4.39,17.66,1.13,30.09,3.14,7.05,7.45,10.15,11.3,21.67,2.27,6.78,2.29,10.24,1.13,13.24-1.95,5.05-6.68,7.3-9.04,8.43-2.48,1.18-7.33,3.49-10.17,1.2-.99-.79-1.8-2.19-2.26-8.43-.58-7.76.41-9.09,0-13.24-.68-6.84-4.2-11.71-7.91-16.85-3.07-4.24-6.3-7.38-9.04-9.63,2.56,3.14,6.07,8.37,7.91,15.65.61,2.43,1.64,6.65,1.13,12.04-.62,6.54-2.78,6.94-3.39,12.04-.77,6.42,1.92,11.84,6.78,21.67,3.73,7.53,5.58,8.97,5.65,13.24.03,1.68-.19,5.24-4.52,12.04-8.76,13.75-20.94,19.68-22.61,20.46-3.91,1.84-10.5,4.34-19.22,4.82,2.21,2.46,5.67,6.87,7.91,13.24,2.26,6.41,2.26,11.83,2.26,14.45v74.63c.03,3.65-.36,8.76-2.26,14.44-3.82,11.39-11.33,17.89-14.7,20.46,4.04-.35,10.01-.43,16.96,1.2,21.78,5.13,33.63,22.54,36.17,26.48,2.8,4.35,6.72,11.57,9.04,21.67.45-7.04,2.09-16.99,7.91-26.48,5.8-9.45,10.67-10.15,22.61-22.87,10.17-10.84,16.45-17.52,19.22-27.69,1.25-4.59,3.78-17.18-4.52-34.91,1.3,10.34-.89,17.94-2.26,21.67,0,0-6.19,16.85-31.65,27.69-2.08.89-4.75,1.78-7.91,1.2-3.93-.71-6.61-3.32-7.91-4.82-3.01-2.81-6.03-5.62-9.04-8.43-.98-4.43-1.85-9.69-2.26-15.65-.37-5.38-.29-10.24,0-14.44.38-24.48.75-48.95,1.13-73.43Z"/>
    </g>
  </g>
</svg>